# xmcd CD database file
#
# Track frame offsets:
#	150
#	15375
#	36175
#	56500
#	83287
#	101625
#	121175
#	146725
#	167800
#	187050
#	218152
#
# Disc length: 3231 seconds
#
# Revision: 2
# Processed by: cddbd v1.4PL0 Copyright (c) Steve Scherf et al.
# Submitted via: CDex 1.50beta10
#
DISCID=8d0c9d0b
DTITLE=Blues Queen Sylvia With Jimmy Dawkins - Midnight Baby
DYEAR=1994
DGENRE=Blues
TTITLE0=I'm Hurtin'
TTITLE1=Life And Troubles
TTITLE2=New York Bound
TTITLE3=Baby, What Do I Do
TTITLE4=Midnight Baby
TTITLE5=Party
TTITLE6=Can't Get Along
TTITLE7=Why Wonder
TTITLE8=You Treat Me So Mean
TTITLE9=I Love You
TTITLE10=Baby, What Do I Do
EXTD=YEAR: 1994
EXTT0=
EXTT1=
EXTT2=
EXTT3=
EXTT4=
EXTT5=
EXTT6=
EXTT7=
EXTT8=
EXTT9=
EXTT10=
PLAYORDER=
